STARTFONT 2.1
COMMENT "$XConsortium: us14x26B.bdf /main/2 1996/10/29 18:47:23 drk $"
COMMENT "Hand-pixeled glyphs created with modified X Font Editor (Xfed)"
FONT -HP-HP User-Bold-R-Normal-Serif-21-210-72-72-M-140-ISO8859-1
SIZE 21 72 72 
FONTBOUNDINGBOX 14 26 0 -6
STARTPROPERTIES 25
COMMENT "Begin X Logical Font Description (XLFD) Version 1.5"
COPYRIGHT "(c) Copyright 1994, Hewlett Packard Company"
NOTICE "Created by the User Interaction Design Group, July 1994."
NOTICE "Hewlett Packard Company, 3000 Hanover St., Palo Alto, CA 94303, USA"
FONTNAME_REGISTRY ""
FOUNDRY "HP"
FAMILY_NAME "HP User"
WEIGHT_NAME "Bold"
SLANT "R"
ADD_STYLE_NAME "Serif"
SETWIDTH_NAME "Normal"
PIXEL_SIZE 21
POINT_SIZE 210
RESOLUTION_X 72
RESOLUTION_Y 72
SPACING "M"
AVERAGE_WIDTH 140
CHARSET_REGISTRY "ISO8859"
CHARSET_ENCODING "1"
COMMENT "End X Logical Font Description (XLFD)"
CHARSET_COLLECTIONS "ISO8859-1"
FULL_NAME "HP User14x26B"
CAP_HEIGHT 16
X_HEIGHT 10
FONT_ASCENT 20
FONT_DESCENT 6
DEFAULT_CHAR 32
COMMENT "End of Font Properties"
ENDPROPERTIES
CHARS 223
STARTCHAR Null
ENCODING 0
SWIDTH 666 0
DWIDTH 14 0
BBX 12 26 1 -6
BITMAP
0000
8400
c400
e400
f400
bc00
9c00
8c00
8400
0000
1900
1900
1900
1900
1900
1900
0E00
0000
0180
0180
0180
0180
0180
0180
01F0
0000
ENDCHAR
STARTCHAR StartOfHeading
ENCODING 1
SWIDTH 666 0
DWIDTH 14 0
BBX 12 26 1 -6
BITMAP
0000
0000
7000
c800
e000
7000
3800
9800
7000
0000
0E00
1900
1900
1900
1900
1900
0E00
0000
0310
0310
0310
03F0
0310
0310
0310
0000
ENDCHAR
STARTCHAR StartOfText
ENCODING 2
SWIDTH 666 0
DWIDTH 14 0
BBX 12 26 1 -6
BITMAP
0000
0000
7000
c800
e000
7000
3800
9800
7000
0000
3F00
0c00
0c00
0c00
0c00
0c00
0c00
0000
0110
0190
00e0
00e0
00e0
0130
0110
0000
ENDCHAR
STARTCHAR EndOfText
ENCODING 3
SWIDTH 666 0
DWIDTH 14 0
BBX 12 26 1 -6
BITMAP
0000
0000
F800
c000
c000
F000
c000
c000
F800
0000
3F00
0c00
0c00
0c00
0c00
0c00
0c00
0000
0110
0190
00e0
00e0
00e0
0130
0110
0000
ENDCHAR
STARTCHAR EndOfTransmit
ENCODING 4
SWIDTH 666 0
DWIDTH 14 0
BBX 12 26 1 -6
BITMAP
0000
0000
F800
c000
c000
F000
c000
c000
F800
0000
0E00
1900
1900
1900
1900
1900
0E00
0000
03F0
00c0
00c0
00c0
00c0
00c0
00c0
0000
ENDCHAR
STARTCHAR Enquiry
ENCODING 5
SWIDTH 666 0
DWIDTH 14 0
BBX 12 26 1 -6
BITMAP
0000
0000
F800
c000
c000
F000
c000
c000
F800
0000
3100
3900
3d00
2f00
2700
2300
2100
0000
00E0
0190
0190
0190
0190
01d0
00E0
0030
ENDCHAR
STARTCHAR Acknowledge
ENCODING 6
SWIDTH 666 0
DWIDTH 14 0
BBX 12 26 1 -6
BITMAP
0000
0000
7000
c800
c800
F800
c800
c800
c800
0000
0E00
1900
1800
1800
1800
1900
0E00
0000
0190
01a0
01c0
01e0
01a0
01b0
0190
0000
ENDCHAR
STARTCHAR Bell
ENCODING 7
SWIDTH 666 0
DWIDTH 14 0
BBX 12 26 1 -6
BITMAP
0000
0180
0300
0F00
1b80
1180
30c0
20c0
20c0
20c0
20c0
6060
4060
4060
4060
4060
4060
c030
8030
FFF0
0380
01c0
0080
0000
0000
0000
ENDCHAR
STARTCHAR BackSpace
ENCODING 8
SWIDTH 666 0
DWIDTH 14 0
BBX 12 26 1 -6
BITMAP
0000
0000
F800
6400
6400
6400
7800
6400
6400
6400
6400
F800
0000
01E0
0310
0310
0380
01c0
00e0
0070
0230
0230
01E0
0000
0000
0000
ENDCHAR
STARTCHAR HorizontalTab
ENCODING 9
SWIDTH 666 0
DWIDTH 14 0
BBX 12 26 1 -6
BITMAP
0000
0000
c600
c600
c600
c600
Fe00
c600
c600
c600
c600
c600
0000
0fF0
0180
0180
0180
0180
0180
0180
0180
0180
0180
0000
0000
0000
ENDCHAR
STARTCHAR LineFeed
ENCODING 10
SWIDTH 666 0
DWIDTH 14 0
BBX 12 26 1 -6
BITMAP
0000
0000
c000
c000
c000
c000
c000
c000
c000
c000
c000
FC00
0000
07F0
0600
0600
0600
07E0
0600
0600
0600
0600
0600
0000
0000
0000
ENDCHAR
STARTCHAR VerticalTab
ENCODING 11
SWIDTH 666 0
DWIDTH 14 0
BBX 12 26 1 -6
BITMAP
0000
0000
c100
c100
6300
6200
6200
3600
3400
3400
1c00
1800
1800
0fF0
0180
0180
0180
0180
0180
0180
0180
0180
0180
0000
0000
0000
ENDCHAR
STARTCHAR FormFeed
ENCODING 12
SWIDTH 666 0
DWIDTH 14 0
BBX 12 26 1 -6
BITMAP
0000
0000
Fe00
c000
c000
c000
Fc00
c000
c000
c000
c000
c000
0000
07F0
0600
0600
0600
07E0
0600
0600
0600
0600
0600
0000
0000
0000
ENDCHAR
STARTCHAR CarriageReturn
ENCODING 13
SWIDTH 666 0
DWIDTH 14 0
BBX 13 26 1 -6
BITMAP
0000
0000
7800
c400
c400
c000
c000
c000
c000
c400
c400
7800
0000
07E0
0310
0310
0310
03E0
0360
0330
0330
0318
0798
0000
0000
0000
ENDCHAR
STARTCHAR ShiftOut
ENCODING 14
SWIDTH 666 0
DWIDTH 14 0
BBX 12 26 1 -6
BITMAP
0000
0000
7800
c400
c400
e000
7000
3800
1c00
8c00
8c00
7800
0000
03e0
0630
0630
0630
0630
0630
0630
0630
0630
03e0
0000
0000
0000
ENDCHAR
STARTCHAR ShiftIn
ENCODING 15
SWIDTH 666 0
DWIDTH 14 0
BBX 11 26 1 -6
BITMAP
0000
0000
7800
c400
c400
e000
7000
3800
1c00
8c00
8c00
7800
0000
07E0
0180
0180
0180
0180
0180
0180
0180
0180
07E0
0000
0000
0000
ENDCHAR
STARTCHAR DataLinkEscape
ENCODING 16
SWIDTH 666 0
DWIDTH 14 0
BBX 12 26 1 -6
BITMAP
0000
0000
F800
6400
6400
6400
6400
6400
F800
0000
1800
1800
1800
1800
1800
1800
1F80
0000
03F0
0300
0300
03E0
0300
0300
03F0
0000
ENDCHAR
STARTCHAR DevCtrl1orXon
ENCODING 17
SWIDTH 666 0
DWIDTH 14 0
BBX 12 26 1 -6
BITMAP
0000
0000
f800
6400
6400
6400
6400
6400
f800
0000
0700
0c80
0c00
0c00
0c00
0c80
0700
0000
0060
00e0
0060
0060
0060
0060
00f0
0000
ENDCHAR
STARTCHAR DeviceControl2
ENCODING 18
SWIDTH 666 0
DWIDTH 14 0
BBX 12 26 1 -6
BITMAP
0000
0000
f800
6400
6400
6400
6400
6400
f800
0000
0f00
1880
1800
1800
1800
1880
0f00
0000
01E0
0230
0030
0060
00c0
0180
03F0
0000
ENDCHAR
STARTCHAR DevCtrl3orXoff
ENCODING 19
SWIDTH 666 0
DWIDTH 14 0
BBX 12 26 1 -6
BITMAP
0000
0000
f800
6400
6400
6400
6400
6400
f800
0000
0700
0c80
0c00
0c00
0c00
0c80
0700
0000
00E0
0130
0030
0060
0030
0130
00E0
0000
ENDCHAR
STARTCHAR DeviceControl4
ENCODING 20
SWIDTH 666 0
DWIDTH 14 0
BBX 12 26 1 -6
BITMAP
0000
0000
f800
6400
6400
6400
6400
6400
f800
0000
0700
0c80
0c00
0c00
0c00
0c80
0700
0000
0060
00e0
0160
0260
03f0
0060
0060
0000
ENDCHAR
STARTCHAR NegAcknowledge
ENCODING 21
SWIDTH 666 0
DWIDTH 14 0
BBX 12 26 1 -6
BITMAP
0000
0000
8400
C400
e400
b400
9c00
8c00
8400
0000
0E00
1900
1900
1f00
1900
1900
1900
0000
0190
0190
01a0
01e0
01a0
01b0
0190
0000
ENDCHAR
STARTCHAR SynchronusIdle
ENCODING 22
SWIDTH 666 0
DWIDTH 14 0
BBX 12 26 1 -6
BITMAP
0000
0000
7000
c800
e000
7000
3800
9800
7000
0000
1880
1880
0d00
0600
0600
0600
0600
0000
0210
0310
0390
02d0
0270
0230
0210
0000
ENDCHAR
STARTCHAR EndTransmit
ENCODING 23
SWIDTH 666 0
DWIDTH 14 0
BBX 12 26 1 -6
BITMAP
0000
0000
F800
c000
c000
F000
c000
c000
F800
0000
3F00
0c00
0c00
0c00
0c00
0c00
0c00
0000
07E0
0310
0310
03E0
0310
0310
07E0
0000
ENDCHAR
STARTCHAR Cancel
ENCODING 24
SWIDTH 666 0
DWIDTH 14 0
BBX 12 26 1 -6
BITMAP
0000
0000
7000
c800
c000
c000
c000
c800
7000
0000
0E00
1900
1900
1F00
1900
1900
1900
0000
0210
0310
0390
02d0
0270
0230
0210
0000
ENDCHAR
STARTCHAR EndOfMedium
ENCODING 25
SWIDTH 666 0
DWIDTH 14 0
BBX 12 26 1 -6
BITMAP
0000
0000
FC00
c000
c000
c000
F800
c000
c000
c000
c000
FC00
0000
0c10
0e30
0f30
0f50
0dd0
0d90
0c90
0c10
0c10
0c10
0000
0000
0000
ENDCHAR
STARTCHAR Substitute
ENCODING 26
SWIDTH 666 0
DWIDTH 14 0
BBX 12 26 1 -6
BITMAP
0000
0000
7000
c800
e000
7000
3800
9800
7000
0000
1900
1900
1900
1900
1900
1900
0E00
0000
07E0
0310
0310
03E0
0310
0310
07E0
0000
ENDCHAR
STARTCHAR Escape
ENCODING 27
SWIDTH 666 0
DWIDTH 14 0
BBX 12 26 1 -6
BITMAP
0000
0000
Fc00
c000
c000
F800
c000
c000
Fc00
0000
0E00
1900
1c00
0E00
0700
1300
0E00
0000
00E0
0190
0180
0180
0180
0190
00E0
0000
ENDCHAR
STARTCHAR FileSeparator
ENCODING 28
SWIDTH 666 0
DWIDTH 14 0
BBX 12 26 1 -6
BITMAP
0000
0000
FC00
c000
c000
c000
F800
c000
c000
c000
c000
c000
0000
01E0
0310
0310
0380
01c0
00e0
0070
0230
0230
01E0
0000
0000
0000
ENDCHAR
STARTCHAR GroupSeparator
ENCODING 29
SWIDTH 666 0
DWIDTH 14 0
BBX 12 26 1 -6
BITMAP
0000
0000
7800
c400
c400
c000
c000
dC00
cc00
cc00
cc00
7800
0000
01E0
0310
0310
0380
01c0
00e0
0070
0230
0230
01E0
0000
0000
0000
ENDCHAR
STARTCHAR RecordSeparatr
ENCODING 30
SWIDTH 666 0
DWIDTH 14 0
BBX 12 26 1 -6
BITMAP
0000
0000
F800
6400
6400
6400
7800
7800
6c00
6c00
6600
e600
0000
01E0
0310
0310
0380
01c0
00e0
0070
0230
0230
01E0
0000
0000
0000
ENDCHAR
STARTCHAR UnitSeparator
ENCODING 31
SWIDTH 666 0
DWIDTH 14 0
BBX 12 26 1 -6
BITMAP
0000
0000
c400
c400
c400
c400
c400
c400
c400
c400
c400
7800
0000
01E0
0310
0310
0380
01c0
00e0
0070
0230
0230
01E0
0000
0000
0000
ENDCHAR
STARTCHAR PrintableSpace
ENCODING 32
SWIDTH 666 0
DWIDTH 14 0
BBX 14 26 0 -6
BITMAP
0000
0000
0000
0000
0000
0000
0000
0000
0000
0000
0000
0000
0000
0000
0000
0000
0000
0000
0000
0000
0000
0000
0000
0000
0000
0000
ENDCHAR
STARTCHAR Exclamation
ENCODING 33
SWIDTH 666 0
DWIDTH 14 0
BBX 4 26 5 -6
BITMAP
0000
0000
0000
6000
f000
f000
f000
f000
f000
f000
f000
f000
6000
6000
6000
0000
0000
6000
f000
f000
f000
6000
0000
0000
0000
0000
ENDCHAR
STARTCHAR NeutrlDblQuote
ENCODING 34
SWIDTH 666 0
DWIDTH 14 0
BBX 8 26 3 -6
BITMAP
0000
0000
0000
E700
E700
E700
e700
c600
c600
c600
0000
0000
0000
0000
0000
0000
0000
0000
0000
0000
0000
0000
0000
0000
0000
0000
ENDCHAR
STARTCHAR NumberSign
ENCODING 35
SWIDTH 666 0
DWIDTH 14 0
BBX 10 26 2 -6
BITMAP
0000
0000
0000
3300
3300
3300
3300
3300
ffc0
ffc0
3300
3300
3300
3300
ffc0
ffc0
3300
3300
3300
3300
3300
0000
0000
0000
0000
0000
ENDCHAR
STARTCHAR DollarSign
ENCODING 36
SWIDTH 666 0
DWIDTH 14 0
BBX 10 26 2 -6
BITMAP
0000
0C00
0C00
0C00
3F80
71C0
e0C0
e0c0
e000
f000
7800
3e00
1F00
0780
03C0
01C0
c1C0
C1C0
E380
7F00
0C00
0C00
0C00
0000
0000
0000
ENDCHAR
STARTCHAR PerCentSign
ENCODING 37
SWIDTH 666 0
DWIDTH 14 0
BBX 13 26 1 -6
BITMAP
0000
0000
0000
0060
7860
eCe0
CCc0
CDc0
dd80
7b80
0300
0700
0600
0e00
0cf0
1dd8
1998
3998
31b8
70f0
6000
0000
0000
0000
0000
0000
ENDCHAR
STARTCHAR Ampersand
ENCODING 38
SWIDTH 666 0
DWIDTH 14 0
BBX 13 26 1 -6
BITMAP
0000
0000
0000
1E00
3b00
7180
7180
7180
3b00
3e00
1c00
1e00
3e00
7778
7330
e3e0
e1C0
e0e0
e1e0
7b70
3E38
0000
0000
0000
0000
0000
ENDCHAR
STARTCHAR SingleCloseQut
ENCODING 39
SWIDTH 666 0
DWIDTH 14 0
BBX 5 26 4 -6
BITMAP
0000
0000
0000
3000
7800
7800
7800
3000
6000
c000
0000
0000
0000
0000
0000
0000
0000
0000
0000
0000
0000
0000
0000
0000
0000
0000
ENDCHAR
STARTCHAR OpenParen
ENCODING 40
SWIDTH 666 0
DWIDTH 14 0
BBX 6 26 5 -6
BITMAP
0000
0000
0c00
1800
3800
7000
7000
e000
e000
e000
e000
e000
e000
e000
e000
e000
e000
7000
7000
3800
1800
0c00
0000
0000
0000
0000
ENDCHAR
STARTCHAR CloseParen
ENCODING 41
SWIDTH 666 0
DWIDTH 14 0
BBX 6 26 4 -6
BITMAP
0000
0000
c000
6000
7000
3800
3800
1C00
1C00
1C00
1C00
1C00
1C00
1C00
1C00
1C00
1C00
3800
3800
7000
6000
c000
0000
0000
0000
0000
ENDCHAR
STARTCHAR Asterisk
ENCODING 42
SWIDTH 666 0
DWIDTH 14 0
BBX 12 26 1 -6
BITMAP
0000
0000
0000
0000
0000
0000
0600
4620
e670
76e0
3Fc0
1F80
1f80
3Fc0
76e0
e670
4620
0600
0000
0000
0000
0000
0000
0000
0000
0000
ENDCHAR
STARTCHAR PlusSign
ENCODING 43
SWIDTH 666 0
DWIDTH 14 0
BBX 12 26 1 -6
BITMAP
0000
0000
0000
0000
0000
0000
0600
0600
0600
0600
0600
FFF0
FFF0
0600
0600
0600
0600
0600
0000
0000
0000
0000
0000
0000
0000
0000
ENDCHAR
STARTCHAR Comma
ENCODING 44
SWIDTH 666 0
DWIDTH 14 0
BBX 5 26 4 -6
BITMAP
0000
0000
0000
0000
0000
0000
0000
0000
0000
0000
0000
0000
0000
0000
0000
0000
3000
7800
7800
7800
3000
6000
C000
0000
0000
0000
ENDCHAR
STARTCHAR Hyphen
ENCODING 45
SWIDTH 666 0
DWIDTH 14 0
BBX 12 26 1 -6
BITMAP
0000
0000
0000
0000
0000
0000
0000
0000
0000
0000
0000
FFF0
FFF0
0000
0000
0000
0000
0000
0000
0000
0000
0000
0000
0000
0000
0000
ENDCHAR
STARTCHAR Period
ENCODING 46
SWIDTH 666 0
DWIDTH 14 0
BBX 4 26 5 -6
BITMAP
0000
0000
0000
0000
0000
0000
0000
0000
0000
0000
0000
0000
0000
0000
0000
0000
6000
F000
F000
f000
6000
0000
0000
0000
0000
0000
ENDCHAR
STARTCHAR Slash
ENCODING 47
SWIDTH 666 0
DWIDTH 14 0
BBX 11 26 2 -6
BITMAP
0000
0000
0060
0060
00e0
00c0
01c0
0180
0380
0300
0700
0600
0e00
0c00
1c00
1800
3800
3000
7000
6000
e000
c000
0000
0000
0000
0000
ENDCHAR
STARTCHAR Zero
ENCODING 48
SWIDTH 666 0
DWIDTH 14 0
BBX 12 26 1 -6
BITMAP
0000
0000
0000
0000
0F00
39c0
70e0
70e0
e070
e070
e070
e670
e670
e070
e070
e070
70e0
70e0
39c0
0F00
0000
0000
0000
0000
0000
0000
ENDCHAR
STARTCHAR One
ENCODING 49
SWIDTH 666 0
DWIDTH 14 0
BBX 6 26 3 -6
BITMAP
0000
0000
0000
0000
0C00
1C00
3C00
7C00
eC00
cC00
0C00
0C00
0C00
0C00
0C00
0C00
0C00
0C00
0C00
0C00
0000
0000
0000
0000
0000
0000
ENDCHAR
STARTCHAR Two
ENCODING 50
SWIDTH 666 0
DWIDTH 14 0
BBX 10 26 2 -6
BITMAP
0000
0000
0000
0000
3F00
6380
C1C0
C1C0
01C0
01c0
0380
0380
0700
0e00
1c00
3800
7040
e0c0
ffC0
FFC0
0000
0000
0000
0000
0000
0000
ENDCHAR
STARTCHAR Three
ENCODING 51
SWIDTH 666 0
DWIDTH 14 0
BBX 11 26 1 -6
BITMAP
0000
0000
0000
0000
1f00
3380
61c0
61c0
01c0
01c0
0380
0f00
03c0
01c0
00e0
00e0
00e0
c1c0
e3c0
7f00
0000
0000
0000
0000
0000
0000
ENDCHAR
STARTCHAR Four
ENCODING 52
SWIDTH 666 0
DWIDTH 14 0
BBX 11 26 1 -6
BITMAP
0000
0000
0000
0000
0600
0600
0c00
0c00
1800
1880
3180
3180
6180
6180
ffe0
ffe0
0180
0180
0180
0180
0000
0000
0000
0000
0000
0000
ENDCHAR
STARTCHAR Five
ENCODING 53
SWIDTH 666 0
DWIDTH 14 0
BBX 11 26 1 -6
BITMAP
0000
0000
0000
0000
7FC0
6000
6000
6000
6000
6000
7F00
03C0
01C0
00e0
00e0
00e0
00e0
C1C0
E3C0
7F00
0000
0000
0000
0000
0000
0000
ENDCHAR
STARTCHAR Six
ENCODING 54
SWIDTH 666 0
DWIDTH 14 0
BBX 11 26 1 -6
BITMAP
0000
0000
0000
0000
0380
0f00
1c00
3800
7000
6000
fF00
FbC0
f1C0
e0e0
e0e0
e0e0
e0e0
71C0
7bC0
1F00
0000
0000
0000
0000
0000
0000
ENDCHAR
STARTCHAR Seven
ENCODING 55
SWIDTH 666 0
DWIDTH 14 0
BBX 11 26 1 -6
BITMAP
0000
0000
0000
0000
FFe0
ffe0
80e0
80c0
01c0
0180
0380
0300
0300
0700
0600
0600
0e00
0c00
0c00
0c00
0000
0000
0000
0000
0000
0000
ENDCHAR
STARTCHAR Eight
ENCODING 56
SWIDTH 666 0
DWIDTH 14 0
BBX 11 26 1 -6
BITMAP
0000
0000
0000
0000
1F00
3980
70C0
70C0
70C0
78C0
3d80
1F00
77C0
63c0
C1e0
C0e0
C0e0
60C0
71C0
1F00
0000
0000
0000
0000
0000
0000
ENDCHAR
STARTCHAR Nine
ENCODING 57
SWIDTH 666 0
DWIDTH 14 0
BBX 11 26 1 -6
BITMAP
0000
0000
0000
0000
1F00
7bC0
71C0
e0e0
e0e0
e0e0
e0e0
71E0
7bE0
1Fe0
00c0
01C0
0380
0700
1E00
3800
0000
0000
0000
0000
0000
0000
ENDCHAR
STARTCHAR Colon
ENCODING 58
SWIDTH 666 0
DWIDTH 14 0
BBX 4 26 5 -6
BITMAP
0000
0000
0000
0000
0000
0000
0000
0000
0000
6000
f000
F000
f000
6000
0000
0000
6000
F000
F000
f000
6000
0000
0000
0000
0000
0000
ENDCHAR
STARTCHAR Simicolon
ENCODING 59
SWIDTH 666 0
DWIDTH 14 0
BBX 5 26 4 -6
BITMAP
0000
0000
0000
0000
0000
0000
0000
0000
0000
0000
3000
7800
7800
7800
3000
0000
3000
7800
7800
7800
3000
6000
C000
0000
0000
0000
ENDCHAR
STARTCHAR LessThanSign
ENCODING 60
SWIDTH 666 0
DWIDTH 14 0
BBX 12 26 1 -6
BITMAP
0000
0000
0000
0000
0000
0000
0030
00F0
03C0
0F00
3C00
F000
F000
3C00
0F00
03C0
00F0
0030
0000
0000
0000
0000
0000
0000
0000
0000
ENDCHAR
STARTCHAR EqualsSign
ENCODING 61
SWIDTH 666 0
DWIDTH 14 0
BBX 12 26 1 -6
BITMAP
0000
0000
0000
0000
0000
0000
0000
0000
0000
FFF0
FFF0
0000
0000
FFF0
FFF0
0000
0000
0000
0000
0000
0000
0000
0000
0000
0000
0000
ENDCHAR
STARTCHAR GreatrThanSign
ENCODING 62
SWIDTH 666 0
DWIDTH 14 0
BBX 12 26 1 -6
BITMAP
0000
0000
0000
0000
0000
0000
C000
F000
3C00
0F00
03C0
00F0
00F0
03C0
0F00
3C00
F000
C000
0000
0000
0000
0000
0000
0000
0000
0000
ENDCHAR
STARTCHAR QuestionMark
ENCODING 63
SWIDTH 666 0
DWIDTH 14 0
BBX 10 26 2 -6
BITMAP
0000
0000
0000
3f00
7780
e3c0
e3c0
e3c0
43c0
0380
0700
0e00
1c00
1c00
1c00
0000
0000
0c00
1e00
1e00
1e00
0c00
0000
0000
0000
0000
ENDCHAR
STARTCHAR CommerclAtSign
ENCODING 64
SWIDTH 666 0
DWIDTH 14 0
BBX 12 26 1 -6
BITMAP
0000
0000
0000
0F00
3dC0
7060
6060
e030
Ceb0
dbb0
d9b0
d9b0
d9b0
d9b0
dbb0
Cee0
e000
6000
7070
3dE0
0F80
0000
0000
0000
0000
0000
ENDCHAR
STARTCHAR A
ENCODING 65
SWIDTH 666 0
DWIDTH 14 0
BBX 14 26 0 -6
BITMAP
0000
0000
0000
0000
0300
0300
0780
0780
0780
0dc0
09c0
09c0
18e0
10e0
3ff0
3070
2070
6038
6038
f07c
0000
0000
0000
0000
0000
0000
ENDCHAR
STARTCHAR B
ENCODING 66
SWIDTH 666 0
DWIDTH 14 0
BBX 12 26 1 -6
BITMAP
0000
0000
0000
0000
ff80
71c0
70e0
70e0
70e0
70e0
71c0
7f80
71c0
70e0
7070
7070
7070
7070
70e0
ffc0
0000
0000
0000
0000
0000
0000
ENDCHAR
STARTCHAR C
ENCODING 67
SWIDTH 666 0
DWIDTH 14 0
BBX 11 26 1 -6
BITMAP
0000
0000
0000
0000
0Fe0
3dE0
7060
7020
e020
e000
e000
e000
e000
e000
e000
e000
7020
7060
3dC0
0F00
0000
0000
0000
0000
0000
0000
ENDCHAR
STARTCHAR D
ENCODING 68
SWIDTH 666 0
DWIDTH 14 0
BBX 12 26 1 -6
BITMAP
0000
0000
0000
0000
FE00
7380
71C0
70e0
70e0
7070
7070
7070
7070
7070
7070
70e0
70e0
71C0
7380
FE00
0000
0000
0000
0000
0000
0000
ENDCHAR
STARTCHAR E
ENCODING 69
SWIDTH 666 0
DWIDTH 14 0
BBX 12 26 1 -6
BITMAP
0000
0000
0000
0000
fff0
7030
7010
7010
7000
7100
7100
7f00
7100
7100
7000
7000
7010
7010
7030
fff0
0000
0000
0000
0000
0000
0000
ENDCHAR
STARTCHAR F
ENCODING 70
SWIDTH 666 0
DWIDTH 14 0
BBX 12 26 1 -6
BITMAP
0000
0000
0000
0000
fff0
7030
7010
7010
7000
7100
7100
7f00
7100
7100
7000
7000
7000
7000
7000
fc00
0000
0000
0000
0000
0000
0000
ENDCHAR
STARTCHAR G
ENCODING 71
SWIDTH 666 0
DWIDTH 14 0
BBX 12 26 1 -6
BITMAP
0000
0000
0000
0000
0Fe0
3dE0
7060
7020
e020
e000
e000
e000
e000
e1F0
e0e0
e0e0
70e0
70e0
3dE0
0F80
0000
0000
0000
0000
0000
0000
ENDCHAR
STARTCHAR H
ENCODING 72
SWIDTH 666 0
DWIDTH 14 0
BBX 13 26 1 -6
BITMAP
0000
0000
0000
0000
F8F8
7070
7070
7070
7070
7070
7070
7Ff0
7070
7070
7070
7070
7070
7070
7070
F8F8
0000
0000
0000
0000
0000
0000
ENDCHAR
STARTCHAR I
ENCODING 73
SWIDTH 666 0
DWIDTH 14 0
BBX 9 26 3 -6
BITMAP
0000
0000
0000
0000
FF80
1c00
1c00
1c00
1c00
1c00
1c00
1c00
1c00
1c00
1c00
1c00
1c00
1c00
1c00
FF80
0000
0000
0000
0000
0000
0000
ENDCHAR
STARTCHAR J
ENCODING 74
SWIDTH 666 0
DWIDTH 14 0
BBX 11 26 1 -6
BITMAP
0000
0000
0000
0000
1FE0
0380
0380
0380
0380
0380
0380
0380
0380
0380
0380
0380
C380
C380
6700
3E00
0000
0000
0000
0000
0000
0000
ENDCHAR
STARTCHAR K
ENCODING 75
SWIDTH 666 0
DWIDTH 14 0
BBX 14 26 0 -6
BITMAP
0000
0000
0000
0000
F878
7070
70e0
71c0
7380
7700
7e00
7c00
7e00
7f00
7780
73c0
71e0
70f0
7078
F87c
0000
0000
0000
0000
0000
0000
ENDCHAR
STARTCHAR L
ENCODING 76
SWIDTH 666 0
DWIDTH 14 0
BBX 11 26 1 -6
BITMAP
0000
0000
0000
0000
FC00
7000
7000
7000
7000
7000
7000
7000
7000
7000
7000
7020
7020
7020
7060
FFE0
0000
0000
0000
0000
0000
0000
ENDCHAR
STARTCHAR M
ENCODING 77
SWIDTH 666 0
DWIDTH 14 0
BBX 13 26 1 -6
BITMAP
0000
0000
0000
0000
e038
6030
7070
7070
78f0
78f0
7db0
6db0
6f30
6730
6630
6230
6030
6030
6030
f078
0000
0000
0000
0000
0000
0000
ENDCHAR
STARTCHAR N
ENCODING 78
SWIDTH 666 0
DWIDTH 14 0
BBX 12 26 1 -6
BITMAP
0000
0000
0000
0000
e0f0
7060
7060
7860
7860
7c60
7c60
6e60
6e60
6760
6760
63e0
63e0
61e0
61e0
f0e0
0000
0000
0000
0000
0000
0000
ENDCHAR
STARTCHAR O
ENCODING 79
SWIDTH 666 0
DWIDTH 14 0
BBX 12 26 1 -6
BITMAP
0000
0000
0000
0000
0f00
3fc0
70e0
70e0
e070
e070
e070
e070
e070
e070
e070
e070
70e0
70e0
39c0
0f00
0000
0000
0000
0000
0000
0000
ENDCHAR
STARTCHAR P
ENCODING 80
SWIDTH 666 0
DWIDTH 14 0
BBX 11 26 2 -6
BITMAP
0000
0000
0000
0000
ff80
71c0
70e0
70e0
70e0
70e0
70e0
71c0
7f80
7000
7000
7000
7000
7000
7000
fc00
0000
0000
0000
0000
0000
0000
ENDCHAR
STARTCHAR Q
ENCODING 81
SWIDTH 666 0
DWIDTH 14 0
BBX 12 26 1 -6
BITMAP
0000
0000
0000
0000
0F00
3fC0
70e0
70e0
e070
e070
e070
e070
e070
e070
e070
e070
76e0
77e0
3fC0
0f80
0180
00c0
0060
0000
0000
0000
ENDCHAR
STARTCHAR R
ENCODING 82
SWIDTH 666 0
DWIDTH 14 0
BBX 13 26 1 -6
BITMAP
0000
0000
0000
0000
FF80
71c0
70e0
70e0
70e0
70e0
71c0
7f80
7f80
7380
71c0
71c0
70e0
70e0
7070
f878
0000
0000
0000
0000
0000
0000
ENDCHAR
STARTCHAR S
ENCODING 83
SWIDTH 666 0
DWIDTH 14 0
BBX 11 26 2 -6
BITMAP
0000
0000
0000
0000
3fc0
71c0
e0c0
e040
e040
f000
7c00
3f00
0f80
03c0
01e0
80e0
80e0
c0e0
e1c0
ff80
0000
0000
0000
0000
0000
0000
ENDCHAR
STARTCHAR T
ENCODING 84
SWIDTH 666 0
DWIDTH 14 0
BBX 13 26 1 -6
BITMAP
0000
0000
0000
0000
FFF8
C718
8708
8708
0700
0700
0700
0700
0700
0700
0700
0700
0700
0700
0700
1Fc0
0000
0000
0000
0000
0000
0000
ENDCHAR
STARTCHAR U
ENCODING 85
SWIDTH 666 0
DWIDTH 14 0
BBX 12 26 1 -6
BITMAP
0000
0000
0000
0000
F8f0
7060
7060
7060
7060
7060
7060
7060
7060
7060
7060
7060
7060
7060
38c0
1F80
0000
0000
0000
0000
0000
0000
ENDCHAR
STARTCHAR V
ENCODING 86
SWIDTH 666 0
DWIDTH 14 0
BBX 14 26 0 -6
BITMAP
0000
0000
0000
0000
f87c
7038
7030
7030
3860
3860
3860
1cc0
1cc0
1cc0
0f80
0f80
0f80
0700
0700
0700
0000
0000
0000
0000
0000
0000
ENDCHAR
STARTCHAR W
ENCODING 87
SWIDTH 666 0
DWIDTH 14 0
BBX 14 26 0 -6
BITMAP
0000
0000
0000
0000
f03c
6318
6318
6318
7310
7730
37b0
35b0
35a0
3de0
39e0
18e0
18c0
18c0
18c0
18c0
0000
0000
0000
0000
0000
0000
ENDCHAR
STARTCHAR X
ENCODING 88
SWIDTH 666 0
DWIDTH 14 0
BBX 13 26 1 -6
BITMAP
0000
0000
0000
0000
F878
7030
3860
38c0
1cC0
0d80
0f80
0700
0700
0f80
0d80
19c0
30e0
30e0
6070
F0f8
0000
0000
0000
0000
0000
0000
ENDCHAR
STARTCHAR Y
ENCODING 89
SWIDTH 666 0
DWIDTH 14 0
BBX 13 26 1 -6
BITMAP
0000
0000
0000
0000
f878
7030
3860
3860
1cc0
1cc0
0f80
0f80
0700
0700
0700
0700
0700
0700
0700
1fc0
0000
0000
0000
0000
0000
0000
ENDCHAR
STARTCHAR Z
ENCODING 90
SWIDTH 666 0
DWIDTH 14 0
BBX 11 26 2 -6
BITMAP
0000
0000
0000
0000
ffe0
c060
80e0
81c0
0180
0380
0700
0600
0e00
1c00
1800
3800
7020
6020
e060
ffe0
0000
0000
0000
0000
0000
0000
ENDCHAR
STARTCHAR OpenBracket
ENCODING 91
SWIDTH 666 0
DWIDTH 14 0
BBX 6 26 5 -6
BITMAP
0000
0000
fc00
e000
e000
e000
e000
e000
e000
e000
e000
e000
e000
e000
e000
e000
e000
e000
e000
e000
e000
fc00
0000
0000
0000
0000
ENDCHAR
STARTCHAR BackSlash
ENCODING 92
SWIDTH 666 0
DWIDTH 14 0
BBX 11 26 2 -6
BITMAP
0000
0000
c000
c000
e000
6000
7000
3000
3800
1800
1c00
0c00
0e00
0600
0700
0300
0380
0180
01c0
00c0
00e0
0060
0000
0000
0000
0000
ENDCHAR
STARTCHAR CloseBracket
ENCODING 93
SWIDTH 666 0
DWIDTH 14 0
BBX 6 26 4 -6
BITMAP
0000
0000
fc00
1c00
1c00
1c00
1c00
1c00
1c00
1c00
1c00
1c00
1c00
1c00
1c00
1c00
1c00
1c00
1c00
1c00
1c00
fc00
0000
0000
0000
0000
ENDCHAR
STARTCHAR Circumflex
ENCODING 94
SWIDTH 666 0
DWIDTH 14 0
BBX 8 26 3 -6
BITMAP
0000
0000
0000
0000
1800
3c00
7e00
c300
0000
0000
0000
0000
0000
0000
0000
0000
0000
0000
0000
0000
0000
0000
0000
0000
0000
0000
ENDCHAR
STARTCHAR Underscore
ENCODING 95
SWIDTH 666 0
DWIDTH 14 0
BBX 14 26 0 -6
BITMAP
0000
0000
0000
0000
0000
0000
0000
0000
0000
0000
0000
0000
0000
0000
0000
0000
0000
0000
0000
0000
FFFC
fffc
0000
0000
0000
0000
ENDCHAR
STARTCHAR SingleOpenQuot
ENCODING 96
SWIDTH 666 0
DWIDTH 14 0
BBX 5 26 4 -6
BITMAP
0000
0000
1800
3000
6000
f000
f000
F000
6000
0000
0000
0000
0000
0000
0000
0000
0000
0000
0000
0000
0000
0000
0000
0000
0000
0000
ENDCHAR
STARTCHAR a
ENCODING 97
SWIDTH 666 0
DWIDTH 14 0
BBX 12 26 1 -6
BITMAP
0000
0000
0000
0000
0000
0000
0000
0000
0000
0000
3F80
71c0
61c0
01c0
1Fc0
71c0
e1c0
e1c0
E7d0
7Ce0
0000
0000
0000
0000
0000
0000
ENDCHAR
STARTCHAR b
ENCODING 98
SWIDTH 666 0
DWIDTH 14 0
BBX 12 26 1 -6
BITMAP
0000
0000
0000
0000
3000
f000
7000
7000
7000
7000
7780
78e0
7060
7070
7070
7070
7070
7060
78e0
6780
0000
0000
0000
0000
0000
0000
ENDCHAR
STARTCHAR c
ENCODING 99
SWIDTH 666 0
DWIDTH 14 0
BBX 10 26 2 -6
BITMAP
0000
0000
0000
0000
0000
0000
0000
0000
0000
0000
1fc0
71c0
60c0
e000
e000
e000
e000
60c0
71c0
1f00
0000
0000
0000
0000
0000
0000
ENDCHAR
STARTCHAR d
ENCODING 100
SWIDTH 666 0
DWIDTH 14 0
BBX 13 26 1 -6
BITMAP
0000
0000
0000
0000
0060
01e0
00e0
00e0
00e0
00e0
1ee0
71e0
60e0
e0e0
e0e0
e0e0
e0e0
60e0
71e8
1E70
0000
0000
0000
0000
0000
0000
ENDCHAR
STARTCHAR e
ENCODING 101
SWIDTH 666 0
DWIDTH 14 0
BBX 11 26 1 -6
BITMAP
0000
0000
0000
0000
0000
0000
0000
0000
0000
0000
1f00
73c0
61c0
e1e0
ffe0
e000
e000
6060
70e0
1f80
0000
0000
0000
0000
0000
0000
ENDCHAR
STARTCHAR f
ENCODING 102
SWIDTH 666 0
DWIDTH 14 0
BBX 11 26 2 -6
BITMAP
0000
0000
0000
0000
07c0
0ce0
1c60
1c00
1c00
1c00
FF80
1c00
1c00
1c00
1c00
1c00
1c00
1c00
1c00
FFc0
0000
0000
0000
0000
0000
0000
ENDCHAR
STARTCHAR g
ENCODING 103
SWIDTH 666 0
DWIDTH 14 0
BBX 11 26 1 -6
BITMAP
0000
0000
0000
0000
0000
0000
0000
0000
0000
0000
3ee0
77e0
e380
e380
e380
7300
3e00
7000
3f80
7fc0
e1e0
e0e0
e0e0
71c0
3f00
0000
ENDCHAR
STARTCHAR h
ENCODING 104
SWIDTH 666 0
DWIDTH 14 0
BBX 12 26 1 -6
BITMAP
0000
0000
0000
0000
3000
f000
7000
7000
7000
7000
77c0
7de0
70e0
70e0
70e0
70e0
70e0
70e0
70e0
F9f0
0000
0000
0000
0000
0000
0000
ENDCHAR
STARTCHAR i
ENCODING 105
SWIDTH 666 0
DWIDTH 14 0
BBX 11 26 2 -6
BITMAP
0000
0000
0000
0000
0000
0c00
1e00
0c00
0000
0000
0600
7e00
0e00
0e00
0e00
0e00
0e00
0e00
0e00
ffe0
0000
0000
0000
0000
0000
0000
ENDCHAR
STARTCHAR j
ENCODING 106
SWIDTH 666 0
DWIDTH 14 0
BBX 9 26 0 -6
BITMAP
0000
0000
0000
0000
0000
0300
0780
0300
0000
0000
0180
1f80
0380
0380
0380
0380
0380
0380
0380
0380
0380
0380
c380
e700
3e00
0000
ENDCHAR
STARTCHAR k
ENCODING 107
SWIDTH 666 0
DWIDTH 14 0
BBX 12 26 1 -6
BITMAP
0000
0000
0000
0000
3000
f000
7000
7000
7000
7000
73e0
7180
7300
7600
7e00
7f00
7380
71c0
70e0
fcf0
0000
0000
0000
0000
0000
0000
ENDCHAR
STARTCHAR l
ENCODING 108
SWIDTH 666 0
DWIDTH 14 0
BBX 9 26 3 -6
BITMAP
0000
0000
0000
0000
7c00
1c00
1c00
1c00
1c00
1c00
1c00
1c00
1c00
1c00
1c00
1c00
1c00
1c00
1c00
FF80
0000
0000
0000
0000
0000
0000
ENDCHAR
STARTCHAR m
ENCODING 109
SWIDTH 666 0
DWIDTH 14 0
BBX 14 26 0 -6
BITMAP
0000
0000
0000
0000
0000
0000
0000
0000
0000
0000
6738
Fbdc
739c
739c
739c
739c
739c
739c
739c
F7bC
0000
0000
0000
0000
0000
0000
ENDCHAR
STARTCHAR n
ENCODING 110
SWIDTH 666 0
DWIDTH 14 0
BBX 12 26 1 -6
BITMAP
0000
0000
0000
0000
0000
0000
0000
0000
0000
0000
77c0
fde0
70e0
70e0
70e0
70e0
70e0
70e0
70e0
F9f0
0000
0000
0000
0000
0000
0000
ENDCHAR
STARTCHAR o
ENCODING 111
SWIDTH 666 0
DWIDTH 14 0
BBX 11 26 1 -6
BITMAP
0000
0000
0000
0000
0000
0000
0000
0000
0000
0000
1F00
71C0
60C0
e0e0
e0e0
e0e0
e0e0
60C0
71C0
1F00
0000
0000
0000
0000
0000
0000
ENDCHAR
STARTCHAR p
ENCODING 112
SWIDTH 666 0
DWIDTH 14 0
BBX 12 26 1 -6
BITMAP
0000
0000
0000
0000
0000
0000
0000
0000
0000
0000
3780
f8e0
7060
7070
7070
7070
7070
7060
78e0
7780
7000
7000
7000
7000
fc00
0000
ENDCHAR
STARTCHAR q
ENCODING 113
SWIDTH 666 0
DWIDTH 14 0
BBX 12 26 1 -6
BITMAP
0000
0000
0000
0000
0000
0000
0000
0000
0000
0000
1E60
71e0
60e0
e0e0
e0e0
e0e0
e0e0
60e0
71e0
1Ee0
00e0
00e0
00e0
00e0
03f0
0000
ENDCHAR
STARTCHAR r
ENCODING 114
SWIDTH 666 0
DWIDTH 14 0
BBX 11 26 2 -6
BITMAP
0000
0000
0000
0000
0000
0000
0000
0000
0000
0000
39c0
fbe0
3cc0
3800
3800
3800
3800
3800
3800
ff00
0000
0000
0000
0000
0000
0000
ENDCHAR
STARTCHAR s
ENCODING 115
SWIDTH 666 0
DWIDTH 14 0
BBX 9 26 2 -6
BITMAP
0000
0000
0000
0000
0000
0000
0000
0000
0000
0000
7f80
e180
e080
f800
7e00
1f00
0780
8380
c380
ff00
0000
0000
0000
0000
0000
0000
ENDCHAR
STARTCHAR t
ENCODING 116
SWIDTH 666 0
DWIDTH 14 0
BBX 11 26 2 -6
BITMAP
0000
0000
0000
0000
0000
0000
0c00
1c00
1c00
1c00
FFC0
1c00
1c00
1c00
1c00
1c00
1c00
1c20
1e60
0Fc0
0000
0000
0000
0000
0000
0000
ENDCHAR
STARTCHAR u
ENCODING 117
SWIDTH 666 0
DWIDTH 14 0
BBX 13 26 1 -6
BITMAP
0000
0000
0000
0000
0000
0000
0000
0000
0000
0000
3060
f1e0
70e0
70e0
70e0
70e0
70e0
70e0
7be8
3e70
0000
0000
0000
0000
0000
0000
ENDCHAR
STARTCHAR v
ENCODING 118
SWIDTH 666 0
DWIDTH 14 0
BBX 12 26 1 -6
BITMAP
0000
0000
0000
0000
0000
0000
0000
0000
0000
0000
f8f0
7060
38c0
38c0
1d80
1d80
0f00
0f00
0600
0600
0000
0000
0000
0000
0000
0000
ENDCHAR
STARTCHAR w
ENCODING 119
SWIDTH 666 0
DWIDTH 14 0
BBX 14 26 0 -6
BITMAP
0000
0000
0000
0000
0000
0000
0000
0000
0000
0000
f73c
6618
7718
7330
33b0
3bb0
3de0
1de0
1ce0
1cc0
0000
0000
0000
0000
0000
0000
ENDCHAR
STARTCHAR x
ENCODING 120
SWIDTH 666 0
DWIDTH 14 0
BBX 12 26 1 -6
BITMAP
0000
0000
0000
0000
0000
0000
0000
0000
0000
0000
f9e0
70c0
3980
1f00
0e00
0f00
1b80
31c0
60e0
f1f0
0000
0000
0000
0000
0000
0000
ENDCHAR
STARTCHAR y
ENCODING 121
SWIDTH 666 0
DWIDTH 14 0
BBX 12 26 1 -6
BITMAP
0000
0000
0000
0000
0000
0000
0000
0000
0000
0000
f8f0
7060
7040
38c0
3880
1d80
1d00
0f00
0e00
0600
0400
0c00
6800
f800
7000
0000
ENDCHAR
STARTCHAR z
ENCODING 122
SWIDTH 666 0
DWIDTH 14 0
BBX 11 26 2 -6
BITMAP
0000
0000
0000
0000
0000
0000
0000
0000
0000
0000
7fe0
60e0
41c0
0380
0700
0e00
1c00
3820
7060
ffe0
0000
0000
0000
0000
0000
0000
ENDCHAR
STARTCHAR OpenBrace
ENCODING 123
SWIDTH 666 0
DWIDTH 14 0
BBX 9 26 3 -6
BITMAP
0000
0000
0780
0e00
1c00
1c00
1c00
1c00
1c00
1c00
3800
f000
3800
1c00
1c00
1c00
1c00
1c00
1c00
1c00
0e00
0780
0000
0000
0000
0000
ENDCHAR
STARTCHAR LongVertMark
ENCODING 124
SWIDTH 666 0
DWIDTH 14 0
BBX 2 26 6 -6
BITMAP
0000
0000
0000
C000
C000
C000
C000
C000
C000
C000
C000
C000
C000
C000
C000
C000
C000
C000
C000
C000
C000
0000
0000
0000
0000
0000
ENDCHAR
STARTCHAR CloseBrace
ENCODING 125
SWIDTH 666 0
DWIDTH 14 0
BBX 9 26 3 -6
BITMAP
0000
0000
f000
3800
1c00
1c00
1c00
1c00
1c00
1c00
0e00
0780
0e00
1c00
1c00
1c00
1c00
1c00
1c00
1c00
3800
f000
0000
0000
0000
0000
ENDCHAR
STARTCHAR OneWavyLine
ENCODING 126
SWIDTH 666 0
DWIDTH 14 0
BBX 10 26 2 -6
BITMAP
0000
0000
0000
0000
0000
0000
0000
0000
0000
0000
7040
fc40
8fc0
8380
0000
0000
0000
0000
0000
0000
0000
0000
0000
0000
0000
0000
ENDCHAR
STARTCHAR MediumShading
ENCODING 127
SWIDTH 666 0
DWIDTH 14 0
BBX 14 26 0 -6
BITMAP
cccc
cccc
3330
3330
cccc
cccc
3330
3330
cccc
cccc
3330
3330
cccc
cccc
3330
3330
cccc
cccc
3330
3330
cccc
cccc
3330
3330
cccc
cccc
ENDCHAR
STARTCHAR InvExclamation
ENCODING 161
SWIDTH 666 0
DWIDTH 14 0
BBX 4 26 5 -6
BITMAP
0000
0000
0000
6000
f000
F000
F000
6000
0000
0000
6000
6000
6000
f000
f000
F000
F000
F000
F000
F000
F000
6000
0000
0000
0000
0000
ENDCHAR
STARTCHAR CentSign
ENCODING 162
SWIDTH 666 0
DWIDTH 14 0
BBX 10 26 1 -6
BITMAP
0000
0000
0000
0000
0000
0600
0600
0600
1FC0
70C0
60c0
e000
e000
e000
e000
60c0
71C0
1F00
0600
0600
0600
0000
0000
0000
0000
0000
ENDCHAR
STARTCHAR SterlingSign
ENCODING 163
SWIDTH 666 0
DWIDTH 14 0
BBX 12 26 1 -6
BITMAP
0000
0000
0000
0000
0f80
1ce0
3860
3800
3800
3800
ff00
3800
3800
ff00
3800
3800
7000
fc30
bfe0
efc0
0000
0000
0000
0000
0000
0000
ENDCHAR
STARTCHAR CurrencySymbol
ENCODING 164
SWIDTH 666 0
DWIDTH 14 0
BBX 11 26 1 -6
BITMAP
0000
0000
0000
0000
4040
eee0
7fc0
3180
60c0
60c0
60c0
3180
7fC0
eee0
4040
0000
0000
0000
0000
0000
0000
0000
0000
0000
0000
0000
ENDCHAR
STARTCHAR Yensign
ENCODING 165
SWIDTH 666 0
DWIDTH 14 0
BBX 13 26 1 -6
BITMAP
0000
0000
0000
0000
f878
7030
3860
3860
1cc0
1cc0
0f80
0f80
0700
7ff0
0700
0700
7ff0
0700
0700
1fc0
0000
0000
0000
0000
0000
0000
ENDCHAR
STARTCHAR BrokenVertMark
ENCODING 166
SWIDTH 666 0
DWIDTH 14 0
BBX 2 26 6 -6
BITMAP
0000
0000
0000
C000
C000
C000
C000
C000
C000
C000
C000
0000
0000
C000
C000
C000
C000
C000
C000
C000
C000
0000
0000
0000
0000
0000
ENDCHAR
STARTCHAR SectionMark
ENCODING 167
SWIDTH 666 0
DWIDTH 14 0
BBX 10 26 2 -6
BITMAP
0000
0000
0000
0000
1f00
3380
6380
7100
7800
3c00
5e00
cf00
e780
f3c0
79c0
3cc0
1e80
0f00
0780
2380
7180
7300
3e00
0000
0000
0000
ENDCHAR
STARTCHAR diaeresisAccnt
ENCODING 168
SWIDTH 666 0
DWIDTH 14 0
BBX 9 26 3 -6
BITMAP
0000
0000
0000
0000
6300
f780
6300
0000
0000
0000
0000
0000
0000
0000
0000
0000
0000
0000
0000
0000
0000
0000
0000
0000
0000
0000
ENDCHAR
STARTCHAR CopyrightSign
ENCODING 169
SWIDTH 666 0
DWIDTH 14 0
BBX 12 26 1 -6
BITMAP
0000
0000
0000
0000
0000
0000
1f80
7fe0
6060
cfb0
d9b0
d8b0
d830
d9b0
cf30
6060
7fe0
1f80
0000
0000
0000
0000
0000
0000
0000
0000
ENDCHAR
STARTCHAR FemaleOrdinal
ENCODING 170
SWIDTH 666 0
DWIDTH 14 0
BBX 9 26 2 -6
BITMAP
0000
0000
0000
3e00
6700
0700
1f00
7700
e700
e700
7980
0000
ff80
0000
0000
0000
0000
0000
0000
0000
0000
0000
0000
0000
0000
0000
ENDCHAR
STARTCHAR DblOpenAnglQut
ENCODING 171
SWIDTH 666 0
DWIDTH 14 0
BBX 11 26 2 -6
BITMAP
0000
0000
0000
0000
0000
0000
0420
0c60
1ce0
39c0
7380
e700
e700
7380
39c0
1ce0
0c60
0420
0000
0000
0000
0000
0000
0000
0000
0000
ENDCHAR
STARTCHAR NotSign
ENCODING 172
SWIDTH 666 0
DWIDTH 14 0
BBX 12 26 1 -6
BITMAP
0000
0000
0000
0000
0000
0000
0000
0000
0000
0000
0000
FFF0
FFF0
0030
0030
0030
0030
0000
0000
0000
0000
0000
0000
0000
0000
0000
ENDCHAR
STARTCHAR SoftHyphen
ENCODING 173
SWIDTH 666 0
DWIDTH 14 0
BBX 12 26 1 -6
BITMAP
0000
0000
0000
0000
0000
0000
0000
0000
0000
0000
0000
FFF0
FFF0
0000
0000
0000
0000
0000
0000
0000
0000
0000
0000
0000
0000
0000
ENDCHAR
STARTCHAR RegisTradeMark
ENCODING 174
SWIDTH 666 0
DWIDTH 14 0
BBX 12 26 1 -6
BITMAP
0000
0000
0000
0000
0000
0000
1f80
7fe0
6060
df30
d9b0
d9b0
df30
d9b0
d9b0
6060
7fe0
1f80
0000
0000
0000
0000
0000
0000
0000
0000
ENDCHAR
STARTCHAR macronAccent
ENCODING 175
SWIDTH 666 0
DWIDTH 14 0
BBX 10 26 2 -6
BITMAP
0000
0000
0000
0000
FFc0
FFc0
0000
0000
0000
0000
0000
0000
0000
0000
0000
0000
0000
0000
0000
0000
0000
0000
0000
0000
0000
0000
ENDCHAR
STARTCHAR DegreeSign
ENCODING 176
SWIDTH 666 0
DWIDTH 14 0
BBX 7 26 3 -6
BITMAP
0000
0000
0000
0000
3800
7c00
C600
C600
C600
7c00
3800
0000
0000
0000
0000
0000
0000
0000
0000
0000
0000
0000
0000
0000
0000
0000
ENDCHAR
STARTCHAR PlusOverMinus
ENCODING 177
SWIDTH 666 0
DWIDTH 14 0
BBX 12 26 1 -6
BITMAP
0000
0000
0000
0000
0600
0600
0600
0600
fff0
FFF0
0600
0600
0600
0600
0000
fff0
fff0
0000
0000
0000
0000
0000
0000
0000
0000
0000
ENDCHAR
STARTCHAR SupNumberTwo
ENCODING 178
SWIDTH 666 0
DWIDTH 14 0
BBX 7 26 3 -6
BITMAP
0000
0000
0000
7c00
ce00
8e00
0e00
1c00
3800
6000
c200
fe00
fe00
0000
0000
0000
0000
0000
0000
0000
0000
0000
0000
0000
0000
0000
ENDCHAR
STARTCHAR SupNumberThree
ENCODING 179
SWIDTH 666 0
DWIDTH 14 0
BBX 7 26 3 -6
BITMAP
0000
0000
0000
7c00
ce00
ce00
0e00
3c00
0e00
0e00
ce00
ce00
7c00
0000
0000
0000
0000
0000
0000
0000
0000
0000
0000
0000
0000
0000
ENDCHAR
STARTCHAR acuteAccent
ENCODING 180
SWIDTH 666 0
DWIDTH 14 0
BBX 5 26 5 -6
BITMAP
0000
0000
0000
0000
3800
7000
e000
0000
0000
0000
0000
0000
0000
0000
0000
0000
0000
0000
0000
0000
0000
0000
0000
0000
0000
0000
ENDCHAR
STARTCHAR muGreek
ENCODING 181
SWIDTH 666 0
DWIDTH 14 0
BBX 12 26 1 -6
BITMAP
0000
0000
0000
0000
0000
0000
0000
0000
0000
0000
1830
1830
1830
1860
3060
3060
30e0
71C0
7FF0
6E70
6000
C000
C000
C000
0000
0000
ENDCHAR
STARTCHAR ParagraphSign
ENCODING 182
SWIDTH 666 0
DWIDTH 14 0
BBX 12 26 1 -6
BITMAP
0000
0000
0000
0000
1ff0
3e60
7e60
7e60
7e60
7e60
7e60
3e60
1e60
0660
0660
0660
0660
0660
0660
0660
0660
0000
0000
0000
0000
0000
ENDCHAR
STARTCHAR middleDot
ENCODING 183
SWIDTH 666 0
DWIDTH 14 0
BBX 4 26 5 -6
BITMAP
0000
0000
0000
0000
0000
0000
0000
0000
0000
0000
6000
f000
f000
f000
6000
0000
0000
0000
0000
0000
0000
0000
0000
0000
0000
0000
ENDCHAR
STARTCHAR cedilla
ENCODING 184
SWIDTH 666 0
DWIDTH 14 0
BBX 7 26 4 -6
BITMAP
0000
0000
0000
0000
0000
0000
0000
0000
0000
0000
0000
0000
0000
0000
0000
0000
0000
0000
0000
0000
1000
3c00
0600
c600
7c00
0000
ENDCHAR
STARTCHAR SupNumberOne
ENCODING 185
SWIDTH 666 0
DWIDTH 14 0
BBX 5 26 4 -6
BITMAP
0000
0000
0000
1800
3800
7800
d800
1800
1800
1800
1800
1800
0000
0000
0000
0000
0000
0000
0000
0000
0000
0000
0000
0000
0000
0000
ENDCHAR
STARTCHAR MaleOrdinal
ENCODING 186
SWIDTH 666 0
DWIDTH 14 0
BBX 9 26 2 -6
BITMAP
0000
0000
0000
3c00
6600
e700
e700
e700
e700
6600
3c00
0000
ff80
0000
0000
0000
0000
0000
0000
0000
0000
0000
0000
0000
0000
0000
ENDCHAR
STARTCHAR DblClosAnglQut
ENCODING 187
SWIDTH 666 0
DWIDTH 14 0
BBX 11 26 2 -6
BITMAP
0000
0000
0000
0000
0000
0000
8400
c600
e700
7380
39c0
1ce0
1ce0
39c0
7380
e700
c600
8400
0000
0000
0000
0000
0000
0000
0000
0000
ENDCHAR
STARTCHAR FracOneFourth
ENCODING 188
SWIDTH 666 0
DWIDTH 14 0
BBX 13 26 1 -6
BITMAP
0000
0000
1800
3800
7800
d800
1808
1818
1830
1860
18c0
0180
0300
06c0
0cc0
1980
31a0
6330
c330
8630
07f8
0fF8
0030
0030
0000
0000
ENDCHAR
STARTCHAR FracOneHalf
ENCODING 189
SWIDTH 666 0
DWIDTH 14 0
BBX 13 26 1 -6
BITMAP
0000
0000
1800
3800
7800
d800
1808
1818
1830
1860
18c0
0180
0300
0600
0dF0
1b38
3238
6038
c070
80e0
0180
0308
03f8
03F8
0000
0000
ENDCHAR
STARTCHAR FracThreeFour
ENCODING 190
SWIDTH 666 0
DWIDTH 14 0
BBX 13 26 1 -6
BITMAP
0000
7c00
ce00
ce00
0e00
3c00
0e08
0e18
ce30
ce60
7cc0
0180
0300
06c0
0cc0
1980
31a0
6330
c330
8630
07f8
0ff8
0030
0030
0000
0000
ENDCHAR
STARTCHAR InvertQuestion
ENCODING 191
SWIDTH 666 0
DWIDTH 14 0
BBX 10 26 2 -6
BITMAP
0000
0000
0000
0c00
1e00
1e00
1e00
0c00
0000
0000
0e00
0e00
0e00
1c00
3800
7000
f080
f1c0
f1c0
f1c0
7b80
3f00
0000
0000
0000
0000
ENDCHAR
STARTCHAR Agrave
ENCODING 192
SWIDTH 666 0
DWIDTH 14 0
BBX 14 26 0 -6
BITMAP
1c00
0e00
0700
0000
0300
0300
0780
0780
0780
0dc0
09c0
09c0
18e0
10e0
3ff0
3070
2070
6038
6038
f07c
0000
0000
0000
0000
0000
0000
ENDCHAR
STARTCHAR Aacute
ENCODING 193
SWIDTH 666 0
DWIDTH 14 0
BBX 14 26 0 -6
BITMAP
00e0
01c0
0380
0000
0300
0300
0780
0780
0780
0dc0
09c0
09c0
18e0
10e0
3ff0
3070
2070
6038
6038
f07c
0000
0000
0000
0000
0000
0000
ENDCHAR
STARTCHAR Acircumflex
ENCODING 194
SWIDTH 666 0
DWIDTH 14 0
BBX 14 26 0 -6
BITMAP
0300
0780
0fc0
1860
0300
0300
0780
0780
0780
0dc0
09c0
09c0
18e0
10e0
3ff0
3070
2070
6038
6038
f07c
0000
0000
0000
0000
0000
0000
ENDCHAR
STARTCHAR Atilde
ENCODING 195
SWIDTH 666 0
DWIDTH 14 0
BBX 14 26 0 -6
BITMAP
1e20
2fa0
23c0
0000
0300
0300
0780
0780
0780
0dc0
09c0
09c0
18e0
10e0
3ff0
3070
2070
6038
6038
f07c
0000
0000
0000
0000
0000
0000
ENDCHAR
STARTCHAR Adiaeresis
ENCODING 196
SWIDTH 666 0
DWIDTH 14 0
BBX 14 26 0 -6
BITMAP
18c0
3de0
18c0
0000
0300
0300
0780
0780
0780
0dc0
09c0
09c0
18e0
10e0
3ff0
3070
2070
6038
6038
f07c
0000
0000
0000
0000
0000
0000
ENDCHAR
STARTCHAR Abolle
ENCODING 197
SWIDTH 666 0
DWIDTH 14 0
BBX 14 26 0 -6
BITMAP
0780
0cc0
0cc0
0cc0
0780
0300
0780
0780
0780
0dc0
09c0
09c0
18e0
10e0
3ff0
3070
2070
6038
6038
f07c
0000
0000
0000
0000
0000
0000
ENDCHAR
STARTCHAR AEdiphthong
ENCODING 198
SWIDTH 666 0
DWIDTH 14 0
BBX 14 26 0 -6
BITMAP
0000
0000
0000
0000
0ffc
078c
0584
0d84
0980
0990
1990
11f0
1190
3190
3f80
2180
2184
6184
618c
f3fc
0000
0000
0000
0000
0000
0000
ENDCHAR
STARTCHAR Ccedilla
ENCODING 199
SWIDTH 666 0
DWIDTH 14 0
BBX 11 26 1 -6
BITMAP
0000
0000
0000
0000
0Fe0
3dE0
7060
7020
e020
e000
e000
e000
e000
e000
e000
e000
7020
7060
3dC0
0F00
0200
0780
00c0
18c0
0F80
0000
ENDCHAR
STARTCHAR Egrave
ENCODING 200
SWIDTH 666 0
DWIDTH 14 0
BBX 12 26 1 -6
BITMAP
1c00
0e00
0700
0000
fff0
7030
7010
7010
7000
7100
7100
7f00
7100
7100
7000
7000
7010
7010
7030
fff0
0000
0000
0000
0000
0000
0000
ENDCHAR
STARTCHAR Eacute
ENCODING 201
SWIDTH 666 0
DWIDTH 14 0
BBX 11 26 1 -6
BITMAP
01c0
0380
0700
0000
FFE0
7060
7020
7020
7000
7100
7100
7f00
7100
7100
7000
7000
7020
7020
7060
FFE0
0000
0000
0000
0000
0000
0000
ENDCHAR
STARTCHAR Ecircumflex
ENCODING 202
SWIDTH 666 0
DWIDTH 14 0
BBX 12 26 1 -6
BITMAP
0600
0f00
1980
0000
fff0
7030
7010
7010
7000
7100
7100
7f00
7100
7100
7000
7000
7010
7010
7030
fff0
0000
0000
0000
0000
0000
0000
ENDCHAR
STARTCHAR Ediaeresis
ENCODING 203
SWIDTH 666 0
DWIDTH 14 0
BBX 12 26 1 -6
BITMAP
3180
7bc0
3180
0000
fff0
7030
7010
7010
7000
7100
7100
7f00
7100
7100
7000
7000
7010
7010
7030
fff0
0000
0000
0000
0000
0000
0000
ENDCHAR
STARTCHAR Igrave
ENCODING 204
SWIDTH 666 0
DWIDTH 14 0
BBX 9 26 3 -6
BITMAP
7000
3800
1c00
0000
FF80
1c00
1c00
1c00
1c00
1c00
1c00
1c00
1c00
1c00
1c00
1c00
1c00
1c00
1c00
FF80
0000
0000
0000
0000
0000
0000
ENDCHAR
STARTCHAR Iacute
ENCODING 205
SWIDTH 666 0
DWIDTH 14 0
BBX 9 26 3 -6
BITMAP
0700
0e00
1c00
0000
ff80
1c00
1c00
1c00
1c00
1c00
1c00
1c00
1c00
1c00
1c00
1c00
1c00
1c00
1c00
Ff80
0000
0000
0000
0000
0000
0000
ENDCHAR
STARTCHAR Icircumflex
ENCODING 206
SWIDTH 666 0
DWIDTH 14 0
BBX 9 26 3 -6
BITMAP
1800
3c00
6600
0000
FF80
1c00
1c00
1c00
1c00
1c00
1c00
1c00
1c00
1c00
1c00
1c00
1c00
1c00
1c00
FF80
0000
0000
0000
0000
0000
0000
ENDCHAR
STARTCHAR Idiaeresis
ENCODING 207
SWIDTH 666 0
DWIDTH 14 0
BBX 9 26 3 -6
BITMAP
6300
f780
6300
0000
ff80
1c00
1c00
1c00
1c00
1c00
1c00
1c00
1c00
1c00
1c00
1c00
1c00
1c00
1c00
ff80
0000
0000
0000
0000
0000
0000
ENDCHAR
STARTCHAR Eth
ENCODING 208
SWIDTH 666 0
DWIDTH 14 0
BBX 12 26 1 -6
BITMAP
0000
0000
0000
0000
FE00
7380
71C0
70e0
70e0
7070
7070
Fe70
7070
7070
7070
70e0
70e0
71C0
7380
FE00
0000
0000
0000
0000
0000
0000
ENDCHAR
STARTCHAR Ntilde
ENCODING 209
SWIDTH 666 0
DWIDTH 14 0
BBX 12 26 1 -6
BITMAP
3c20
4f20
43c0
0000
e0f0
7060
7060
7860
7860
7c60
7c60
6e60
6e60
6760
6760
63e0
63e0
61e0
61e0
f0e0
0000
0000
0000
0000
0000
0000
ENDCHAR
STARTCHAR Ograve
ENCODING 210
SWIDTH 666 0
DWIDTH 14 0
BBX 12 26 1 -6
BITMAP
3800
1c00
0e00
0000
0F00
3fC0
70e0
70e0
e070
e070
e070
e070
e070
e070
e070
e070
70e0
70e0
3fC0
0F00
0000
0000
0000
0000
0000
0000
ENDCHAR
STARTCHAR Oacute
ENCODING 211
SWIDTH 666 0
DWIDTH 14 0
BBX 12 26 1 -6
BITMAP
01C0
0380
0700
0000
0F00
3fC0
70e0
70e0
e070
e070
e070
e070
e070
e070
e070
e070
70e0
70e0
3fC0
0F00
0000
0000
0000
0000
0000
0000
ENDCHAR
STARTCHAR Ocircumflex
ENCODING 212
SWIDTH 666 0
DWIDTH 14 0
BBX 12 26 1 -6
BITMAP
0600
0F00
1f80
30c0
0F00
3fC0
70e0
70e0
e070
e070
e070
e070
e070
e070
e070
e070
70e0
70e0
3fC0
0F00
0000
0000
0000
0000
0000
0000
ENDCHAR
STARTCHAR Otilde
ENCODING 213
SWIDTH 666 0
DWIDTH 14 0
BBX 12 26 1 -6
BITMAP
3c20
4f20
43c0
0000
0F00
3fC0
70e0
70e0
e070
e070
e070
e070
e070
e070
e070
e070
70e0
70e0
3fC0
0F00
0000
0000
0000
0000
0000
0000
ENDCHAR
STARTCHAR Odiaeresis
ENCODING 214
SWIDTH 666 0
DWIDTH 14 0
BBX 12 26 1 -6
BITMAP
3180
7bc0
3180
0000
0F00
3fC0
70e0
70e0
e070
e070
e070
e070
e070
e070
e070
e070
70e0
70e0
3fC0
0F00
0000
0000
0000
0000
0000
0000
ENDCHAR
STARTCHAR MultiplySign
ENCODING 215
SWIDTH 666 0
DWIDTH 14 0
BBX 12 26 1 -6
BITMAP
0000
0000
0000
0000
0000
0000
c030
e070
70e0
39c0
1f80
0F00
0F00
1f80
39c0
70e0
e070
c030
0000
0000
0000
0000
0000
0000
0000
0000
ENDCHAR
STARTCHAR Ooblique
ENCODING 216
SWIDTH 666 0
DWIDTH 14 0
BBX 12 26 1 -6
BITMAP
0000
0000
0000
0020
0f60
3fc0
70e0
70e0
e1f0
e170
e370
e270
e670
e470
ec70
e870
78e0
70e0
3fc0
6f00
4000
0000
0000
0000
0000
0000
ENDCHAR
STARTCHAR Ugrave
ENCODING 217
SWIDTH 666 0
DWIDTH 14 0
BBX 12 26 1 -6
BITMAP
1c00
0e00
0700
0000
F8F0
7060
7060
7060
7060
7060
7060
7060
7060
7060
7060
7060
7060
7060
38C0
1F80
0000
0000
0000
0000
0000
0000
ENDCHAR
STARTCHAR Uacute
ENCODING 218
SWIDTH 666 0
DWIDTH 14 0
BBX 12 26 1 -6
BITMAP
01C0
0380
0700
0000
F8F0
7060
7060
7060
7060
7060
7060
7060
7060
7060
7060
7060
7060
7060
38C0
1F80
0000
0000
0000
0000
0000
0000
ENDCHAR
STARTCHAR Ucircumflex
ENCODING 219
SWIDTH 666 0
DWIDTH 14 0
BBX 12 26 1 -6
BITMAP
0600
0F00
1980
0000
F8F0
7060
7060
7060
7060
7060
7060
7060
7060
7060
7060
7060
7060
7060
38C0
1F80
0000
0000
0000
0000
0000
0000
ENDCHAR
STARTCHAR Udiaeresis
ENCODING 220
SWIDTH 666 0
DWIDTH 14 0
BBX 12 26 1 -6
BITMAP
3180
7bc0
3180
0000
f8f0
7060
7060
7060
7060
7060
7060
7060
7060
7060
7060
7060
7060
7060
38c0
1f80
0000
0000
0000
0000
0000
0000
ENDCHAR
STARTCHAR Yacute
ENCODING 221
SWIDTH 666 0
DWIDTH 14 0
BBX 13 26 1 -6
BITMAP
01c0
0380
0700
0000
f878
7030
3860
3860
1cc0
1cc0
0f80
0f80
0700
0700
0700
0700
0700
0700
0700
1fc0
0000
0000
0000
0000
0000
0000
ENDCHAR
STARTCHAR Thorn
ENCODING 222
SWIDTH 666 0
DWIDTH 14 0
BBX 11 26 2 -6
BITMAP
0000
0000
0000
0000
f800
7000
7000
7f80
71c0
70e0
70e0
70e0
70e0
70e0
71c0
7f80
7000
7000
7000
f800
0000
0000
0000
0000
0000
0000
ENDCHAR
STARTCHAR EsZetLigature
ENCODING 223
SWIDTH 666 0
DWIDTH 14 0
BBX 12 26 1 -6
BITMAP
0000
0000
0000
0000
1F00
3b80
71C0
71C0
71C0
71C0
7380
77C0
70e0
7070
7070
7070
7070
74f0
77e0
73C0
7000
f000
0000
0000
0000
0000
ENDCHAR
STARTCHAR agrave
ENCODING 224
SWIDTH 666 0
DWIDTH 14 0
BBX 12 26 1 -6
BITMAP
0000
0000
0000
0000
0000
3800
1c00
0e00
0000
0000
3F80
71C0
61C0
01C0
1fC0
71C0
e1C0
e1C0
E7d0
7Ce0
0000
0000
0000
0000
0000
0000
ENDCHAR
STARTCHAR aacute
ENCODING 225
SWIDTH 666 0
DWIDTH 14 0
BBX 12 26 1 -6
BITMAP
0000
0000
0000
0000
0000
0380
0700
0e00
0000
0000
3F80
71C0
61C0
01C0
1fC0
71C0
e1C0
e1C0
E7d0
7ce0
0000
0000
0000
0000
0000
0000
ENDCHAR
STARTCHAR acircumflex
ENCODING 226
SWIDTH 666 0
DWIDTH 14 0
BBX 12 26 1 -6
BITMAP
0000
0000
0000
0000
0400
0e00
1f00
3180
0000
0000
3F80
71C0
61C0
01C0
1fC0
71C0
e1C0
e1C0
E7d0
7Ce0
0000
0000
0000
0000
0000
0000
ENDCHAR
STARTCHAR atilde
ENCODING 227
SWIDTH 666 0
DWIDTH 14 0
BBX 12 26 1 -6
BITMAP
0000
0000
0000
0000
0000
3c40
5f40
4780
0000
0000
3F80
71C0
61C0
01C0
1FC0
71C0
e1C0
e1C0
E7d0
7Ce0
0000
0000
0000
0000
0000
0000
ENDCHAR
STARTCHAR adiaeresis
ENCODING 228
SWIDTH 666 0
DWIDTH 14 0
BBX 12 26 1 -6
BITMAP
0000
0000
0000
0000
0000
3180
7bc0
3180
0000
0000
3F80
71C0
61C0
01C0
1fC0
71C0
e1C0
e1C0
E7d0
7Ce0
0000
0000
0000
0000
0000
0000
ENDCHAR
STARTCHAR abolle
ENCODING 229
SWIDTH 666 0
DWIDTH 14 0
BBX 12 26 1 -6
BITMAP
0000
0000
0000
1e00
3300
3300
3300
1e00
0000
0000
3F80
71C0
61C0
01C0
1fC0
71C0
e1C0
e1C0
E7d0
7Ce0
0000
0000
0000
0000
0000
0000
ENDCHAR
STARTCHAR aedihthong
ENCODING 230
SWIDTH 666 0
DWIDTH 14 0
BBX 14 26 0 -6
BITMAP
0000
0000
0000
0000
0000
0000
0000
0000
0000
0000
3f78
63dc
638c
038c
1ffc
7380
e380
e384
e7cc
79f8
0000
0000
0000
0000
0000
0000
ENDCHAR
STARTCHAR ccedilla
ENCODING 231
SWIDTH 666 0
DWIDTH 14 0
BBX 10 26 1 -6
BITMAP
0000
0000
0000
0000
0000
0000
0000
0000
0000
0000
1FC0
71C0
60c0
e000
e000
e000
e000
60c0
71C0
1F00
0400
0E00
0300
3300
1E00
0000
ENDCHAR
STARTCHAR egrave
ENCODING 232
SWIDTH 666 0
DWIDTH 14 0
BBX 11 26 1 -6
BITMAP
0000
0000
0000
0000
0000
3800
1c00
0e00
0000
0000
1F00
73C0
61C0
e1e0
FFE0
e000
e000
6060
70E0
1F80
0000
0000
0000
0000
0000
0000
ENDCHAR
STARTCHAR eacute
ENCODING 233
SWIDTH 666 0
DWIDTH 14 0
BBX 11 26 1 -6
BITMAP
0000
0000
0000
0000
0000
01c0
0380
0700
0000
0000
1F00
73C0
61C0
e1e0
FFE0
e000
e000
6060
70E0
1F80
0000
0000
0000
0000
0000
0000
ENDCHAR
STARTCHAR ecircumflex
ENCODING 234
SWIDTH 666 0
DWIDTH 14 0
BBX 11 26 1 -6
BITMAP
0000
0000
0000
0000
0400
0e00
1f00
3180
0000
0000
1F00
73C0
61C0
e1e0
FFE0
e000
e000
6060
70E0
1F80
0000
0000
0000
0000
0000
0000
ENDCHAR
STARTCHAR ediaeresis
ENCODING 235
SWIDTH 666 0
DWIDTH 14 0
BBX 11 26 1 -6
BITMAP
0000
0000
0000
0000
0000
3180
7bc0
3180
0000
0000
1F00
73C0
61C0
e1e0
fFE0
e000
e000
6060
70E0
1F80
0000
0000
0000
0000
0000
0000
ENDCHAR
STARTCHAR igrave
ENCODING 236
SWIDTH 666 0
DWIDTH 14 0
BBX 11 26 2 -6
BITMAP
0000
0000
0000
0000
0000
3800
1c00
0e00
0000
0000
0600
7e00
0e00
0e00
0e00
0e00
0e00
0e00
0e00
ffe0
0000
0000
0000
0000
0000
0000
ENDCHAR
STARTCHAR iacute
ENCODING 237
SWIDTH 666 0
DWIDTH 14 0
BBX 11 26 2 -6
BITMAP
0000
0000
0000
0000
0000
0380
0700
0e00
0000
0000
0600
7e00
0e00
0e00
0e00
0e00
0e00
0e00
0e00
ffe0
0000
0000
0000
0000
0000
0000
ENDCHAR
STARTCHAR icircumflex
ENCODING 238
SWIDTH 666 0
DWIDTH 14 0
BBX 11 26 2 -6
BITMAP
0000
0000
0000
0000
0400
0e00
1f00
3180
0000
0000
0600
7e00
0e00
0e00
0e00
0e00
0e00
0e00
0e00
ffe0
0000
0000
0000
0000
0000
0000
ENDCHAR
STARTCHAR idiaeresis
ENCODING 239
SWIDTH 666 0
DWIDTH 14 0
BBX 11 26 2 -6
BITMAP
0000
0000
0000
0000
0000
3180
7bc0
3180
0000
0000
0600
7e00
0e00
0e00
0e00
0e00
0e00
0e00
0e00
ffe0
0000
0000
0000
0000
0000
0000
ENDCHAR
STARTCHAR ethIcelandic
ENCODING 240
SWIDTH 666 0
DWIDTH 14 0
BBX 11 26 1 -6
BITMAP
0000
0000
0000
0000
3180
3F00
0e00
3F00
6380
01C0
1fC0
7be0
71e0
e0e0
e0e0
e0e0
e0e0
71C0
71C0
1F00
0000
0000
0000
0000
0000
0000
ENDCHAR
STARTCHAR ntilde
ENCODING 241
SWIDTH 666 0
DWIDTH 14 0
BBX 12 26 1 -6
BITMAP
0000
0000
0000
0000
0000
1c40
2f40
2380
0000
0000
77c0
fde0
70e0
70e0
70e0
70e0
70e0
70e0
70e0
f9f0
0000
0000
0000
0000
0000
0000
ENDCHAR
STARTCHAR ograve
ENCODING 242
SWIDTH 666 0
DWIDTH 14 0
BBX 11 26 1 -6
BITMAP
0000
0000
0000
0000
0000
3800
1c00
0e00
0000
0000
1F00
71C0
60C0
e0e0
e0e0
e0e0
e0e0
60C0
71C0
1F00
0000
0000
0000
0000
0000
0000
ENDCHAR
STARTCHAR oacute
ENCODING 243
SWIDTH 666 0
DWIDTH 14 0
BBX 11 26 1 -6
BITMAP
0000
0000
0000
0000
0000
01C0
0380
0700
0000
0000
1F00
71C0
60C0
e0e0
e0e0
e0e0
e0e0
60C0
71C0
1F00
0000
0000
0000
0000
0000
0000
ENDCHAR
STARTCHAR ocircumflex
ENCODING 244
SWIDTH 666 0
DWIDTH 14 0
BBX 11 26 1 -6
BITMAP
0000
0000
0000
0000
0400
0e00
1f00
3180
0000
0000
1F00
71C0
60C0
e0e0
e0e0
e0e0
e0e0
60C0
71C0
1F00
0000
0000
0000
0000
0000
0000
ENDCHAR
STARTCHAR otilde
ENCODING 245
SWIDTH 666 0
DWIDTH 14 0
BBX 11 26 1 -6
BITMAP
0000
0000
0000
0000
0000
3C40
5f40
4780
0000
0000
1F00
71C0
60C0
e0e0
e0e0
e0e0
e0e0
60C0
71C0
1F00
0000
0000
0000
0000
0000
0000
ENDCHAR
STARTCHAR odiaeresis
ENCODING 246
SWIDTH 666 0
DWIDTH 14 0
BBX 11 26 1 -6
BITMAP
0000
0000
0000
0000
0000
3180
7bc0
3180
0000
0000
1F00
71C0
60C0
e0e0
e0e0
e0e0
e0e0
60C0
71C0
1F00
0000
0000
0000
0000
0000
0000
ENDCHAR
STARTCHAR DivideSign
ENCODING 247
SWIDTH 666 0
DWIDTH 14 0
BBX 12 26 1 -6
BITMAP
0000
0000
0000
0000
0000
0000
0600
0f00
0600
0000
0000
FFF0
FFF0
0000
0000
0600
0f00
0600
0000
0000
0000
0000
0000
0000
0000
0000
ENDCHAR
STARTCHAR ooblique
ENCODING 248
SWIDTH 666 0
DWIDTH 14 0
BBX 11 26 1 -6
BITMAP
0000
0000
0000
0000
0000
0000
0000
0000
0040
00C0
1F80
71C0
63C0
e2e0
e6e0
eCe0
e8e0
78C0
71C0
3F00
6000
4000
0000
0000
0000
0000
ENDCHAR
STARTCHAR ugrave
ENCODING 249
SWIDTH 666 0
DWIDTH 14 0
BBX 13 26 1 -6
BITMAP
0000
0000
0000
0000
0000
1c00
0e00
0700
0000
0000
3060
f1e0
70e0
70e0
70e0
70e0
70e0
70e0
79e8
3E70
0000
0000
0000
0000
0000
0000
ENDCHAR
STARTCHAR uacute
ENCODING 250
SWIDTH 666 0
DWIDTH 14 0
BBX 13 26 1 -6
BITMAP
0000
0000
0000
0000
0000
0380
0700
0e00
0000
0000
3060
f1e0
70e0
70e0
70e0
70e0
70e0
70e0
7be8
3E70
0000
0000
0000
0000
0000
0000
ENDCHAR
STARTCHAR ucircumflex
ENCODING 251
SWIDTH 666 0
DWIDTH 14 0
BBX 13 26 1 -6
BITMAP
0000
0000
0000
0000
0200
0700
0f80
18c0
0000
0000
3060
f1e0
70e0
70e0
70e0
70e0
70e0
70e0
7be8
3e70
0000
0000
0000
0000
0000
0000
ENDCHAR
STARTCHAR udiaeresis
ENCODING 252
SWIDTH 666 0
DWIDTH 14 0
BBX 13 26 1 -6
BITMAP
0000
0000
0000
0000
0000
3180
7bc0
3180
0000
0000
3060
f1e0
70e0
70e0
70e0
70e0
70e0
70e0
7be8
3E70
0000
0000
0000
0000
0000
0000
ENDCHAR
STARTCHAR yacute
ENCODING 253
SWIDTH 666 0
DWIDTH 14 0
BBX 12 26 1 -6
BITMAP
0000
0000
0000
0000
0000
01c0
0380
0700
0000
0000
f8f0
7060
7040
38c0
3880
1d80
1d00
0f00
0e00
0600
0400
0c00
6800
f800
7000
0000
ENDCHAR
STARTCHAR thorn
ENCODING 254
SWIDTH 666 0
DWIDTH 14 0
BBX 12 26 1 -6
BITMAP
0000
0000
0000
0000
3000
f000
7000
7000
7000
7000
7780
78e0
7060
7070
7070
7070
7070
7060
78e0
7780
7000
7000
7000
7000
fc00
0000
ENDCHAR
STARTCHAR ydiaeresis
ENCODING 255
SWIDTH 666 0
DWIDTH 14 0
BBX 12 26 1 -6
BITMAP
0000
0000
0000
0000
0000
3180
7bc0
3180
0000
0000
f8f0
7060
7040
38c0
3880
1d80
1d00
0f00
0e00
0600
0400
0c00
6800
f800
7000
0000
ENDCHAR
ENDFONT
